<svg width="335" height="482" viewBox="0 0 335 482" fill="none" xmlns="http://www.w3.org/2000/svg">
<path d="M170.028 169.877C209.056 169.877 240.694 138.238 240.694 99.2106C240.694 60.1829 209.056 28.5447 170.028 28.5447C131 28.5447 99.3621 60.1829 99.3621 99.2106C99.3621 138.238 131 169.877 170.028 169.877Z" fill="#FEB8B8"/>
<path d="M236.031 38.246C225.466 21.0898 208.928 8.4481 189.601 2.75431L180.925 9.0851V0.864751C176.284 0.15434 171.586 -0.119331 166.893 0.0473377L159.408 6.81954V0.609975C148.327 1.98706 137.65 5.64533 128.053 11.3541C118.455 17.0628 110.145 24.6983 103.645 33.7789C87.3911 57.2111 84.6473 89.8105 100.634 113.431C105.023 99.9436 110.349 87.2888 114.739 73.803C118.188 74.2732 121.684 74.2902 125.137 73.8534L130.476 61.3948L131.968 73.3262C148.518 71.8848 173.065 68.7188 188.753 65.8184L187.227 56.6648L196.355 64.2708C201.161 63.1646 204.016 62.1605 203.78 61.3936C215.448 80.2047 229.728 92.2192 241.395 111.03C245.827 84.5056 250.928 62.4506 236.031 38.246Z" fill="#171720"/>
<path d="M322.01 280.93C319.58 266.311 317.074 251.411 310.279 238.241C305.814 229.615 298.725 221.395 289.17 219.689C287.288 219.521 285.438 219.093 283.673 218.417C280.873 217.068 243.248 195.589 237.268 191.848C232.133 188.637 224.028 182.69 219.941 182.69C215.829 182.6 200.063 186.269 138.527 181.459C138.527 181.459 121.622 188.122 108.541 196.202C108.343 196.071 44.6724 230.262 42.2804 230.172C37.7504 229.982 33.5396 232.882 30.9427 236.535C28.3464 240.187 27.1284 244.709 25.8532 249.08C39.76 280.05 52.484 311.06 66.3921 342.03C67.0433 343.196 67.3893 344.509 67.3979 345.844C67.1184 347.231 66.5267 348.535 65.6677 349.659C58.8474 360.615 59.0642 374.395 59.8092 387.272C60.5549 400.149 61.4769 413.75 55.7222 425.292C54.157 428.461 52.1215 431.361 50.6328 434.53C47.1464 441.707 45.8865 464.661 47.9228 472.372L303.043 479.68C297.558 464.602 322.01 280.93 322.01 280.93Z" fill="#4070F4"/>
<path d="M3.80074 343.403C3.29168 347.085 3.24043 350.817 3.64815 354.512L7.30468 407.024C7.64799 411.974 7.98584 416.911 8.4504 421.848C9.32774 431.429 10.6383 440.934 12.265 450.426C12.3017 451.773 12.8716 453.051 13.8495 453.979C14.8275 454.907 16.1337 455.409 17.4813 455.375C33.5774 458.781 50.2075 458.645 66.6346 457.717C91.7016 456.318 155.832 453.671 159.75 448.581C163.669 443.491 161.385 435.259 156.276 431.143C151.168 427.028 66.5378 416.994 66.5378 416.994C67.3647 410.441 69.8592 404.27 72.2256 398.048C76.4761 387.013 80.446 375.616 80.5223 363.795C80.5985 351.974 76.145 339.545 66.4615 332.773C58.4959 327.213 48.2402 326.182 38.5335 326.411C31.4711 326.614 19.2687 324.922 12.818 327.683C7.71338 329.931 4.75438 338.405 3.80074 343.403Z" fill="#FBBEBE"/>
<path d="M25.1173 250.023C23.878 251.321 22.917 252.858 22.2932 254.54C12.0081 277.72 5.933 302.546 4.35255 327.856C4.3803 329.09 4.09586 330.312 3.52562 331.406C2.96327 332.135 2.33732 332.812 1.65513 333.429C1.06037 334.134 0.610283 334.95 0.330611 335.829C0.0509391 336.708 -0.0528403 337.633 0.0251609 338.552C0.103162 339.472 0.361432 340.366 0.785232 341.186C1.20903 342.005 1.79005 342.733 2.49513 343.328C2.61077 343.425 2.72946 343.519 2.85121 343.609C4.95058 339.658 9.97622 338.366 14.4434 338.023C35.8321 336.331 56.7249 346.282 78.1777 345.531C76.6641 340.301 74.4871 335.275 73.2528 329.983C67.7939 306.481 81.4092 280.893 73.0621 258.257C71.3946 253.727 68.6086 249.274 64.2192 247.289C62.4015 246.556 60.4995 246.052 58.5573 245.79C53.1365 244.811 42.3455 240.624 37.1045 242.304C35.17 242.928 34.4071 244.747 32.8036 245.846C30.3678 247.402 27.1363 247.974 25.1173 250.023Z" fill="#4070F4"/>
<path d="M322.163 327.683C315.712 324.922 303.51 326.614 296.447 326.411C286.741 326.182 276.485 327.213 268.519 332.773C258.836 339.545 254.382 351.974 254.459 363.795C254.535 375.616 258.505 387.013 262.755 398.048C265.122 404.27 267.616 410.441 268.443 416.994C268.443 416.994 183.813 427.028 178.704 431.143C173.596 435.259 171.312 443.491 175.23 448.581C179.148 453.671 301.403 458.781 317.5 455.375C318.847 455.409 320.153 454.907 321.131 453.979C322.109 453.051 322.679 451.773 322.716 450.426C324.343 440.934 325.653 431.429 326.53 421.848C326.995 416.911 327.333 411.974 327.676 407.024L331.333 354.512C331.74 350.817 331.689 347.085 331.18 343.403C330.227 338.405 327.268 329.931 322.163 327.683Z" fill="#FBBEBE"/>
<path d="M302.177 245.846C300.574 244.747 299.811 242.928 297.877 242.304C292.636 240.624 281.845 244.811 276.424 245.79C274.482 246.052 272.58 246.556 270.762 247.289C266.372 249.274 263.586 253.727 261.919 258.257C253.572 280.893 267.187 306.481 261.728 329.983C260.494 335.275 258.317 340.301 256.803 345.531C278.256 346.282 299.149 336.331 320.538 338.023C325.005 338.366 330.03 339.658 332.13 343.609C332.251 343.519 332.37 343.425 332.486 343.328C333.191 342.733 333.772 342.005 334.196 341.186C334.62 340.366 334.878 339.472 334.956 338.552C335.034 337.633 334.93 336.708 334.65 335.829C334.371 334.95 333.921 334.135 333.326 333.429C332.644 332.812 332.018 332.135 331.455 331.406C330.885 330.312 330.601 329.09 330.629 327.856C329.048 302.546 322.973 277.72 312.688 254.54C312.064 252.858 311.103 251.321 309.864 250.023C307.845 247.974 304.613 247.402 302.177 245.846Z" fill="#4070F4"/>
<path d="M149.099 457.883C159.633 457.883 168.172 449.344 168.172 438.81C168.172 428.277 159.633 419.737 149.099 419.737C138.565 419.737 130.026 428.277 130.026 438.81C130.026 449.344 138.565 457.883 149.099 457.883Z" fill="#FBBEBE"/>
<path d="M191.331 457.883C201.865 457.883 210.404 449.344 210.404 438.81C210.404 428.277 201.865 419.737 191.331 419.737C180.798 419.737 172.259 428.277 172.259 438.81C172.259 449.344 180.798 457.883 191.331 457.883Z" fill="#FBBEBE"/>
<path d="M309.063 481.788H47.032C43.9728 481.785 41.0399 480.568 38.8766 478.405C36.7133 476.242 35.4964 473.309 35.4927 470.25V311.283C35.4964 308.224 36.7133 305.291 38.8766 303.128C41.0399 300.964 43.9728 299.748 47.032 299.744H309.063C312.122 299.748 315.055 300.964 317.218 303.128C319.382 305.291 320.599 308.224 320.602 311.283V470.25C320.599 473.309 319.382 476.242 317.218 478.405C315.055 480.568 312.122 481.785 309.063 481.788Z" fill="#1C1B26"/>
<path d="M177.412 398.401C181.628 398.401 185.046 394.983 185.046 390.766C185.046 386.55 181.628 383.132 177.412 383.132C173.195 383.132 169.777 386.55 169.777 390.766C169.777 394.983 173.195 398.401 177.412 398.401Z" fill="white"/>
<path d="M105.046 125.549C93.6915 125.549 84.4867 115.597 84.4867 103.32V92.205C84.4867 79.928 93.6914 69.9755 105.046 69.9755V125.549H105.046Z" fill="black"/>
<path d="M236.27 69.9756C247.624 69.9756 256.829 79.928 256.829 92.205V103.32C256.829 115.597 247.624 125.549 236.27 125.549V69.9756Z" fill="black"/>
<path d="M247.043 93.9516H243.781C243.781 49.2216 210.125 12.8309 168.755 12.8309C127.386 12.8309 93.7291 49.2216 93.7291 93.9516H90.4671C90.4671 47.2767 125.587 9.30396 168.755 9.30396C211.924 9.30398 247.043 47.2767 247.043 93.9516Z" fill="black"/>
</svg>
